# xmcd
#
# Track frame offsets:
#	150
#	19361
#	42311
#	65932
#	86292
#	97038
#	128648
#	150231
#	167045
#	194352
#	215538
#	230431
#	257178
#	282946
#	294850
#
# Disc length: 4279
#
# Revision: 2
# Processed by: cddbd v1.5.1PL0 Copyright (c) Steve Scherf et al.
# Submitted via: CDex 1.50
# Normalized: r1:DSETVAR1,TDELIM( - )
#
DISCID=d410b50f
DTITLE=Various Artist - Eternity 2
DYEAR=2002
DGENRE=New Age
TTITLE0=Edvard Grieg - Il Mattino
TTITLE1=Ennio Morricone - Cìera Una
TTITLE2=Frederic Chopin - Notturno Op.9
TTITLE3=The Penguin Cafe Orchestra - Air
TTITLE4=Peter Tchaikovsky - Danza Della
TTITLE5=Astor Piazzolla - Milonga Del
TTITLE6=Leo Delibes - Duetto Dei Fiori
TTITLE7=Paul Mccartney - My Love
TTITLE8=Craig Armstrong - Weather Storm
TTITLE9=Joaquin Rodrigo - Concerto Di
TTITLE10=Ludvig Van Beethoven - Per Elisa
TTITLE11=Ryuichi Sakamoto and David Sylvian - Forbidden Colours
TTITLE12=Wolfgang Amadeus Mozart - Eine
TTITLE13=Ennio Morricone - La Califfa
TTITLE14=Tomaso Albinoni - Adagio
EXTD=YEAR: 2002
EXTT0=
EXTT1=
EXTT2=
EXTT3=
EXTT4=
EXTT5=
EXTT6=
EXTT7=
EXTT8=
EXTT9=
EXTT10=
EXTT11=
EXTT12=
EXTT13=
EXTT14=
PLAYORDER=
